<svg xmlns="http://www.w3.org/2000/svg" width="29.945" height="30" viewBox="0 0 29.945 30"><g transform="translate(-6018.739 -3239.707)"><path d="M6050.176,3298.916h-7.87a.638.638,0,1,0,0,1.276h7.87a.638.638,0,1,0,0-1.276Z" transform="translate(-14.707 -39.661)" fill="#0f1d5b"/><path d="M6050.176,3304.92h-7.87a.638.638,0,1,0,0,1.277h7.87a.638.638,0,1,0,0-1.277Z" transform="translate(-14.707 -43.751)" fill="#0f1d5b"/><path d="M6047.14,3310.923h-4.834a.638.638,0,1,0,0,1.277h4.834a.638.638,0,0,0,0-1.277Z" transform="translate(-14.705 -47.842)" fill="#0f1d5b"/><path d="M6050.033,3248.416h-4.6v-7.709h-20.685v7.709h-4.659v16.691h4.271v5.6h21.57v-5.6h4.1Zm-24.012-6.434h18.136v6.434h-18.136Zm18.633,27.45h-19.02V3257.4h19.02Zm4.106-5.6h-2.831v-7.709h-21.57v7.709h-3V3249.69h27.4Z" transform="translate(-1.349 -1)" fill="#0f1d5b"/></g></svg>